<svg viewBox="0 0 90 90" xmlns="http://www.w3.org/2000/svg"><path d="m41.33 89.85h-.51l.66-7.47h.5zm7.34 0-.67-7.47h.5l.65 7.47zm-11.23-.49-.5-.09 1.3-7.39.5.09zm15.13 0-1.31-7.36.5-.09 1.3 7.39zm-19-.83-.49-.13 1.94-7.24.49.13zm22.81 0-1.94-7.24.49-.13 1.94 7.24zm-26.53-1.16-.47-.18 2.56-7 .48.17zm30.31 0-2.56-7 .48-.17 2.56 7zm-33.95-1.48-.46-.22 3.17-6.79.46.21zm37.58 0-3.17-6.8.46-.21 3.17 6.79zm-41.07-1.79-.44-.25 3.72-6.5.44.25zm44.56 0-3.74-6.5.44-.26 3.75 6.5zm-47.88-2.1-.4-.28 4.3-6.14.41.29zm51.2 0-4.3-6.14.42-.29 4.28 6.15zm-54.33-2.37-.39-.32 4.82-5.74.39.33zm57.46 0-4.82-5.74.39-.33 4.82 5.75zm-63-5.52-.33-.39 5.74-4.82.33.39zm68.62 0-5.78-4.81.32-.39 5.74 4.82zm-71-3.1-.35-.41 6.14-4.3.29.41zm73.43 0-6.14-4.3.29-.41 6.07 4.3zm-75.56-3.3-.25-.44 6.49-3.75.26.44zm77.69 0-6.56-3.71.25-.44 6.49 3.75zm-79.58-3.46-.21-.46 6.8-3.17.22.46zm81.35 0-6.8-3.17.21-.46 6.8 3.17zm-82.88-3.62-.17-.48 7-2.56.17.48zm84.4 0-7-2.56.17-.47 7 2.56zm-85.6-3.74-.13-.49 7.24-1.94.13.49zm86.8 0-7.24-1.94.13-.49 7.24 1.94zm-87.67-3.83-.09-.5 7.36-1.3.09.5zm88.55 0-7.39-1.3.09-.5 7.39 1.3zm-89.08-3.89v-.51l7.42-.66v.5zm89.61 0-7.47-.65v-.51l7.47.66zm-82.19-7.17-7.47-.65v-.51l7.47.66zm74.76 0v-.51l7.47-.65v.5zm-74.38-3.26-7.39-1.3.09-.5 7.39 1.3zm74 0-.09-.5 7.38-1.3.09.5zm-73.26-3.2-7.27-1.94.13-.49 7.25 1.89zm72.58 0-.16-.54 7.24-1.94.13.49zm-71.65-3.13-7-2.56.17-.48 7 2.56zm70.65 0-.17-.48 7-2.56.17.47zm-69.42-3-6.8-3.17.21-.46 6.79 3.17zm68.19 0-.21-.46 6.8-3.17.21.46zm-66.69-2.94-6.5-3.75.25-.44 6.5 3.72zm65.2 0-.25-.47 6.5-3.75.25.44zm-63.46-2.77-6.14-4.3.29-.41 6.14 4.3zm61.72 0-.29-.41 6.15-4.29.29.41zm-59.75-2.61-5.75-4.82.33-.39 5.74 4.82zm57.78 0-.33-.39 5.74-4.82.33.39zm-53.19-4.65-4.82-5.74.39-.33 4.82 5.74zm48.6 0-.39-.32 4.82-5.74.39.32zm-46-2-4.3-6.16.4-.28 4.3 6.14zm43.43 0-.41-.29 4.28-6.15.41.29zm-40.73-1.79-3.75-6.49.44-.25 3.75 6.49zm37.94 0-.44-.25 3.75-6.49.44.25zm-35-1.53-3.17-6.8.46-.21 3.17 6.8zm32.16 0-.46-.21 3.17-6.8.46.21zm-29.16-1.27-2.56-7 .48-.17 2.56 7zm26.13 0-.47-.18 2.57-7 .47.17zm-23-1-1.96-7.25.49-.13 1.94 7.24zm19.9 0-.49-.13 1.92-7.25.49.13zm-16.71-.73-1.3-7.39.5-.09 1.28 7.36zm13.52 0-.5-.09 1.3-7.39.5.09zm-10.28-.45-.65-7.47h.51l.64 7.42zm7 0h-.5l.65-7.47h.51zm-2.6-.17h-1.79v-7.5h1.79zm-32.08 5-1.27 1.27 5.3 5.3 1.26-1.27zm-13.82 31.61v1.79h7.5v-1.79zm12.55 32.08 1.26 1.27 5.31-5.3-1.26-1.26zm31.56 13.81h1.79v-7.5h-1.79zm28-19.12-1.26 1.26 5.3 5.31 1.27-1.26zm17.89-24.99v-1.78h-7.5v1.79zm-12.55-32.08-1.26-1.27-5.31 5.3 1.26 1.27zm-10.32 11.19-44.13 26.47h17.65v17.66z"/></svg>